<svg xmlns="http://www.w3.org/2000/svg" xmlns:xlink="http://www.w3.org/1999/xlink" version="1.1" id="Layer_1" x="0px" y="0px" viewBox="0 0 1200 1200" enable-background="new 0 0 1200 1200" xml:space="preserve">
<path d="M1147.523,415.494l-68.386-54.429l-2.379-17.839l3.368-16.157c0.423-2.029-0.136-4.137-1.51-5.689l-38.822-43.854  c-0.628-0.71-1.402-1.274-2.271-1.656l-17.973-7.909c-0.208-0.092-0.418-0.172-0.636-0.241l-40.26-12.94  c-0.648-0.209-1.325-0.315-2.007-0.315h-25.163c-0.869,0-1.73,0.173-2.532,0.508l-39.54,16.535  c-0.638,0.268-1.233,0.634-1.756,1.088l-47.45,40.979c-0.267,0.228-0.51,0.478-0.736,0.746l-30.194,35.946  c-0.074,0.088-0.146,0.178-0.215,0.27l-34.872,46.255l-26.311,24.236l-23.161,12.943l-45.781,14.086l-84.026,17.771h-141.95  l-84.613-7.169l-47.45-3.595c-0.267-0.019-0.538-0.023-0.809-0.012l-45.291,2.157c-0.108,0.005-0.215,0.013-0.323,0.023  l-29.796,2.899l-55.461-48.431l-37.994-45.03l-30.267-60.535l-10.612-39.618c-0.094-0.346-0.214-0.684-0.361-1.01l-20.749-45.778  l-15.52-38.093L81.61,100.46c-0.429-2.877-2.702-5.129-5.584-5.531c-2.868-0.399-5.683,1.141-6.883,3.792l-18.559,40.975  C50.2,140.545,50,141.468,50,142.402v56.157c0,0.997,0.227,1.981,0.665,2.878l18.406,37.713l8.341,22.938l20.033,99.445  c0.21,1.044,0.672,2.021,1.344,2.848l41.066,50.431l56.093,66.033l11.942,30.167l-14.444,20.095  c-0.151,0.211-0.291,0.432-0.417,0.66l-23.006,41.697c-0.349,0.631-0.591,1.315-0.716,2.025l-12.221,69.018  c-0.096,0.549-0.123,1.107-0.079,1.664l10.018,125.952l-2.713,27.823l-12.166,27.036l-23.724,30.002l-33.546,34.26  c-1.194,1.22-1.866,2.858-1.874,4.562l-0.719,175.417c-0.005,1.2,0.318,2.376,0.936,3.404l8.625,14.379  c0.308,0.51,0.682,0.977,1.115,1.387l13.659,12.942c1.528,1.451,3.655,2.071,5.729,1.687l20.2-3.812l15.899,3.75  c0.989,0.231,2.022,0.231,3.012,0l17.254-4.068c2.861-0.674,4.924-3.171,5.049-6.105l0.41-9.57l23.576,3.275  c0.3,0.041,0.602,0.062,0.902,0.062c1.451,0,2.871-0.482,4.029-1.382l6.021-4.685l11.237-3.509c1.497-0.469,2.776-1.458,3.608-2.786  l3.867-6.188c1.664-2.663,1.209-6.134-1.088-8.276l-23.197-21.649c-1.215-1.133-2.814-1.763-4.477-1.763h-14.752l-10.28-50.031  l5.04-31.684l18.565-33.091l24.308-35.239c0.14-0.205,0.269-0.418,0.386-0.636l25.046-46.883c0.099-0.185,0.19-0.374,0.27-0.569  l10.926-26.244l3.174-3.699c0.097-0.113,0.19-0.228,0.279-0.349l29.477-39.54c0.224-0.3,0.422-0.62,0.592-0.956l25.951-51.202  l25.364-20.159l38.945-3.301l126.567,48.349c0.156,0.062,0.315,0.115,0.476,0.161l59.073,17.519l0,0.001  c0.004,0.001,0.007,0.001,0.011,0.002l45.16,13.393c0.32,0.095,0.643,0.167,0.974,0.21l36.666,5.032  c0.213,0.031,0.426,0.049,0.641,0.056l51.01,1.963l9.576,43.415l3.558,64.636l1.43,88.63l-4.24,29.679  c-0.292,2.045,0.395,4.109,1.856,5.567l6.839,6.839l2.03,40.611c0.09,1.776,0.895,3.44,2.233,4.611l15.407,13.477l1.822,13.385  c0.32,2.35,1.887,4.345,4.093,5.216l7.907,3.122c0.602,0.238,1.235,0.384,1.881,0.438l50.326,4.068  c0.177,0.013,0.351,0.021,0.528,0.021c1.089,0,2.163-0.272,3.127-0.792l17.253-9.348c2.53-1.371,3.873-4.234,3.307-7.057  l-0.542-2.712l4.623,0.305c0.146,0.01,0.29,0.015,0.433,0.015c0.705,0,1.405-0.113,2.076-0.336l16.886-5.629  c1.799-0.602,3.253-1.953,3.981-3.704c0.73-1.753,0.666-3.735-0.177-5.437l-11.063-22.318c-0.864-1.738-2.45-3.007-4.337-3.463  l-31.453-7.61l-8.535-54.05l6.464-35.6c0.026-0.138,0.046-0.279,0.062-0.42l13.949-121.216l21.04-108.442l10.249-17.283  c0.238-0.402,0.433-0.828,0.582-1.271l22.287-66.858c0.09-0.269,0.161-0.546,0.215-0.823l14.918-76.719  c16.943-32.74,41.106-79.306,49.134-94.483c3.122,0.672,7.526,1.287,13.816,1.79c0.42,0.035,0.841,0.027,1.261-0.021l34.606-3.918  l12.834,15.277c1.246,1.484,3.086,2.341,5.024,2.341h27.116l9.335,4.98c0.951,0.506,2.012,0.772,3.089,0.772h30.915  c0.966,0,1.92-0.213,2.794-0.624l24.443-11.502c1.066-0.502,1.976-1.28,2.638-2.256l28.756-42.417  C1150.794,421.471,1150.207,417.631,1147.523,415.494z M1030.922,287.303l35.687,40.311l-2.925,14.031  c-0.151,0.725-0.179,1.471-0.082,2.207l2.434,18.25l-29.289,27.823l-38.416-28.532l2.968-52.695l9.342-29.852l3.936,1.265  L1030.922,287.303z M934.787,396.228l-13.927-48.745l63.889,21.68l-0.818,14.517l-20.362,33.33L934.787,396.228z M952.803,267.589  h22.817l22.526,7.241l-9.615,30.727c-0.161,0.516-0.259,1.051-0.29,1.59l-2.727,48.417l-67.776-22.999l0.709-50.609L952.803,267.589  z M803.518,406.044c0.292-0.268,0.556-0.561,0.795-0.877l35.126-46.591l29.743-35.41l35.998-31.089l-0.61,43.583l-37.311,74.836  l-76.673,7.46L803.518,406.044z M749.243,446.311c0.441-0.136,0.866-0.319,1.271-0.545l23.245-12.989l83.329-8.107l-71.656,93.23  l-52.931-66.439L749.243,446.311z M870.807,641.919L725.047,653.88l62.574-115.427l91.49,70.593l-3.717,19.117L870.807,641.919z   M217.828,500.464l-9.557-24.145l2.171-46.128l42.323,36.959L217.828,500.464z M273.602,570.354l-4.277-97.489l23.76-2.312  l105.547,84.806L273.602,570.354z M403.708,567.969l-54.35,111.036l-70.101-96.11L403.708,567.969z M417.045,570.572l61.641,53.589  l-88.006,57.509l-29.228,2.476L417.045,570.572z M618.732,539.124l-75.744,28.191l-50.988-88.363h117.927L618.732,539.124z   M479.922,484.28l51.928,89.992l-42.574,41.706l-65.459-56.907L479.922,484.28z M485.634,635.297l25.394,90.88l-103.792-39.649  L485.634,635.297z M496.907,626.875l42.531-41.664l73.557,93.672c-12.839,24.089-30.01,56.232-36.284,67.792l-50.516-14.98  L496.907,626.875z M623.516,671.034l-72.729-92.619l72.872-27.123l78.277,105.544L623.516,671.034z M712.636,649.233  l-74.431-100.358L773.9,536.223L712.636,649.233z M701.942,460.837c0.192-0.041,0.382-0.09,0.572-0.147l16.514-5.081l53.802,67.533  l-141.246,13.169l-8.6-58.775L701.942,460.837z M340.31,468.18l46.988,3.56l80.507,6.822l-54.079,72.09l-101.008-81.158  L340.31,468.18z M63.124,197.043v-53.225l8.79-19.407l8.938,59.94c0.077,0.518,0.215,1.024,0.413,1.508l15.917,39.054l2.372,5.234  l-10.82,24.671l-7.445-20.477c-0.079-0.217-0.169-0.428-0.27-0.636L63.124,197.043z M93.655,276.269l13.18-30.051l10.973,24.215  l10.645,39.741c0.115,0.427,0.272,0.841,0.469,1.237l25.179,50.356l-44.688-7.275L93.655,276.269z M119.872,369.49l42.382,6.9  l35.597,42.189l-1.973,41.915l-45.935-54.073L119.872,369.49z M204.332,538.449l15.953-22.195l36.29-34.603l3.923,89.419  l-73.685-0.869L204.332,538.449z M181.259,583.261l72.717,0.857c-9.367,11.934-25.44,32.466-41.366,53.061  c-19.625,25.376-31.669,41.235-39.067,51.372l-3.387-42.583L181.259,583.261z M175.044,707.421l0-0.005h0  C175.044,707.417,175.044,707.419,175.044,707.421z M162.943,834.485c0.334-0.423,0.615-0.887,0.837-1.376l10.602-23.561  l64.238,18.669l-68.791,80.181l-25.98-49.766L162.943,834.485z M134.653,869.378l25.971,49.749l-7.807,9.099  c-0.578,0.672-1.012,1.456-1.279,2.299l-12.373,39.181l-33.46,28.492l0.408-99.674L134.653,869.378z M170.864,1089.258  l-10.911,2.573l-15.748-3.714c-0.895-0.21-1.82-0.228-2.722-0.062l-18.273,3.448l-10.573-10.017l-7.222-12.039l0.221-53.954  l31.127-26.505l-4.908,50.718c-0.123,1.274,0.128,2.558,0.724,3.688l7.19,13.659c0.618,1.174,1.578,2.133,2.75,2.75l12.961,6.823  l15.757,13.939L170.864,1089.258z M206.065,1051.438l17.057,15.917l-9.468,2.958c-0.75,0.236-1.452,0.602-2.072,1.084l-4.771,3.714  l-26.022-3.616l-17.206-15.221c-0.392-0.349-0.827-0.648-1.291-0.892l-11.857-6.241l-5.328-10.122l1.178-12.17l38.854,23.632  l0.007-0.011c1.001,0.609,2.164,0.967,3.404,0.967H206.065z M220.518,881.125l-24.27,35.182c-0.114,0.167-0.222,0.338-0.32,0.515  L176.641,951.2c-0.379,0.677-0.636,1.415-0.757,2.181l-5.412,34.021c-0.124,0.779-0.106,1.576,0.053,2.35l8.566,41.691l-31.403-19.1  l3.633-37.547l12.329-39.04l73.368-85.516L220.518,881.125z M290.232,762.959l-29.006,38.909l-13.221,15.41l-70.207-20.404  l2.346-24.057c0.037-0.384,0.041-0.772,0.01-1.156l-2.629-33.046L311,721.984L290.232,762.959z M319.788,707.666l-143.304,17.855  l-1.306-16.42c6.459-10.837,57.11-76.181,91.98-120.527l74.299,101.868L319.788,707.666z M626.482,761.434l-36.913-10.946  c0.776-1.435,1.643-3.045,2.59-4.804c3.85-7.151,8.958-16.691,14.062-26.234c7.849-14.687,15.682-29.377,18.873-35.364  l82.138-14.871l3.779,99.014l-48.674-1.873L626.482,761.434z M725.746,780.455l86.87-13.685l-17.77,46.432l-56.919,60.514  l-2.756-50.134c-0.018-0.354-0.067-0.705-0.143-1.051L725.746,780.455z M770.3,973.222c-0.09,0.582-0.097,1.177-0.028,1.761  l1.099,9.118l-31.23-10.351l-1.326-81.822l52.078-55.368L770.3,973.222z M746.539,1057.362l-2.017-40.357  c-0.082-1.625-0.764-3.163-1.915-4.311l-6.308-6.305l2.74-19.177l34.066,11.291l4.075,33.819l-21.227,33.277L746.539,1057.362z   M816.355,1091.875l-47.411-3.832l-3.427-1.353l-1.311-9.627l20.447-32.054l14.39,17.474c0.613,0.746,1.384,1.346,2.256,1.761  l24.34,11.527l1.997,9.991L816.355,1091.875z M814.54,1048.775l32.732,7.92l6.354,12.821l-8.512,2.835l-6.867-0.452l-0.387-1.935  c-0.405-2.033-1.751-3.755-3.624-4.644l-25.993-12.311l-17.981-21.833l-6.854-56.88l7.095-47.086l15.874,20.707l-6.142,33.835  c-0.131,0.725-0.141,1.466-0.026,2.194l9.391,59.474C810.016,1046.04,811.964,1048.152,814.54,1048.775z M820.889,823.512  c-0.033,0.167-0.059,0.333-0.077,0.5l-12.123,105.346L793.22,909.18l13.674-90.743l21.833-57.046l6.264-10.564L820.889,823.512z   M853.462,693.951l-34.733,58.57l-94.618,14.906l-3.815-99.991l146-11.982L853.462,693.951z M881.912,594.632l-87.193-67.278  l73.318-95.391c9.826,46.798,22.621,110.811,22.405,118.875c-0.007,0.035-0.028,0.065-0.035,0.1L881.912,594.632z M890.495,550.687  c0.059-0.331,0.191-0.862,0.523-1.505C890.773,549.656,890.619,550.168,890.495,550.687z M935.187,464.141  c-4.937,9.438-11.491,22.034-18.037,34.634c-5.834,11.235-11.653,22.457-16.319,31.461c-1.813-10.625-4.724-26.087-9.279-48.896  c-5.592-27.993-11.465-55.851-13.145-63.788l31.036-62.255l13.349,46.722c0.405,1.416,1.274,2.654,2.468,3.517l17.711,12.789  l-0.192,31.506c-0.531,0.907-1.051,1.883-1.584,2.888C939.734,455.471,937.663,459.41,935.187,464.141z M1009.711,446.602  c-1.412-1.683-3.576-2.553-5.762-2.299l-37.466,4.241c-3.858-0.327-7.85-0.839-10.564-1.324l0.119-19.46l5.594,4.039  c1.128,0.814,2.474,1.242,3.842,1.242c0.431,0,0.864-0.042,1.294-0.129c1.792-0.36,3.353-1.452,4.306-3.012l24.917-40.784  c0.564-0.923,0.889-1.971,0.951-3.051l0.506-8.981l33.761,25.073l9.634,60.078h-18L1009.711,446.602z M1088.773,467.986h-27.808  l-6.46-3.446l-10.214-63.681l29.073-27.617l43.029,34.249l-15.811,5.549c-1.869,0.656-3.342,2.121-4.006,3.987  c-0.667,1.866-0.454,3.933,0.579,5.624l17.525,28.706l-4.419,6.519L1088.773,467.986z M1122.77,439.421l-10.187-16.686l15.937-5.593  l6.075,4.836L1122.77,439.421z" fill="#cccccc"/>
</svg>